<svg width="100%" viewBox="0 0 680 110" role="img" xmlns="http://www.w3.org/2000/svg">
  <title>Erick Pérez</title>
  <desc>Banner minimalista verde mostaza negro</desc>

  <rect width="680" height="110" fill="#0f0f0f"/>
  <rect x="0" y="0" width="680" height="110" fill="#121a11" opacity="0.6"/>

  <polygon points="0,0 110,0 0,110" fill="#5faa52" opacity="0.45"/>
  <polygon points="0,0 50,0 0,65" fill="#5faa52" opacity="0.5"/>
  <polygon points="680,0 570,0 680,110" fill="#c9a227" opacity="0.45"/>
  <polygon points="680,0 630,0 680,65" fill="#c9a227" opacity="0.5"/>

  <line x1="108" y1="2" x2="2" y2="108" stroke="#5faa52" stroke-width="0.4" opacity="0.3"/>
  <line x1="572" y1="2" x2="678" y2="108" stroke="#c9a227" stroke-width="0.4" opacity="0.3"/>

  <rect x="0" y="107" width="340" height="1.5" fill="#5faa52" opacity="0.6"/>
  <rect x="340" y="107" width="340" height="1.5" fill="#c9a227" opacity="0.6"/>

  <text x="340" y="66" font-family="'Helvetica Neue', Helvetica, Arial, sans-serif" font-size="36" font-weight="200" fill="#f0ede8" text-anchor="middle" letter-spacing="12">Erick Pérez</text>

  <line x1="200" y1="78" x2="336" y2="78" stroke="#5faa52" stroke-width="0.6" opacity="0.7"/>
  <line x1="344" y1="78" x2="480" y2="78" stroke="#c9a227" stroke-width="0.6" opacity="0.7"/>
  <circle cx="340" cy="78" r="2" fill="#c8c0b0" opacity="0.5"/>
</svg>
